<?xml version="1.0" encoding="UTF-8" standalone="no"?>
<!DOCTYPE svg PUBLIC "-//W3C//DTD SVG 1.1//EN" "http://www.w3.org/Graphics/SVG/1.1/DTD/svg11.dtd">
<svg width="100%" height="100%" viewBox="0 0 1575 1303" version="1.1" xmlns="http://www.w3.org/2000/svg" xmlns:xlink="http://www.w3.org/1999/xlink" xml:space="preserve" xmlns:serif="http://www.serif.com/" style="fill-rule:evenodd;clip-rule:evenodd;stroke-linejoin:round;stroke-miterlimit:2;">
    <g transform="matrix(1,0,0,1,-388.468,-312.509)">
        <g transform="matrix(0.610567,0,0,0.610567,1175.69,963.781)">
            <g transform="matrix(1,0,0,1,-1289.32,-1066.67)">
                <clipPath id="_clip1">
                    <rect x="0" y="0" width="2578.64" height="2133.33"/>
                </clipPath>
                <g clip-path="url(#_clip1)">
                    <g id="Image" transform="matrix(4.16667,0,0,4.16667,-917.398,-893.249)">
                        <rect id="rect857" x="220.176" y="214.38" width="618.874" height="512" style="fill:white;"/>
                        <path id="path110" d="M487.362,494.062C455.012,492.948 430.722,475.313 421.297,446.099C418.382,437.061 417.399,430.763 417.109,419.26C416.805,407.221 417.441,400.45 419.721,391.421C423.46,376.615 429.455,365.823 439.502,355.806C453.351,342 470.265,335.405 491.791,335.416C507.634,335.424 523.141,339.628 533.67,346.767C535.351,347.907 536.858,349.051 537.018,349.31C537.224,349.644 533.144,359.728 532.276,361.03C532.241,361.084 530.885,360.271 529.264,359.224C524.925,356.422 517.346,352.955 511.54,351.116C502.706,348.317 494.562,347.447 485.234,348.305C459.62,350.662 441.706,366.668 434.95,393.236C433.121,400.424 432.487,406.043 432.493,414.976C432.499,424.071 433.139,429.565 435.044,436.91C439.72,454.94 451.484,469.484 466.758,476.118C474.218,479.359 479.789,480.531 489.243,480.851C501.599,481.269 510.42,479.601 520.277,474.982L524.983,472.776L524.704,422.185L504.153,422.044L483.601,421.904L483.601,409.559L509.149,409.559C536.862,409.559 536.966,409.569 538.3,412.499C539.099,414.251 539.228,476.972 538.438,479.051C537.698,480.999 535.897,482.502 531.834,484.561C518.697,491.221 502.894,494.597 487.362,494.062ZM299.788,490.69L299.788,337.024L314.295,337.024L314.295,490.69L299.788,490.69ZM320.563,485.72C321.205,474.646 323.839,463.815 327.286,458.078C331.693,450.743 336.685,448.225 353.741,444.739C365.435,442.349 370.965,439.907 375.932,434.94C379.208,431.664 381.729,427.906 383.587,423.528C385.452,419.137 385.741,411.467 384.229,406.525C382.643,401.34 379.627,396.559 375.465,392.633C369.706,387.199 367.019,386.173 346.061,381.4C338.384,379.652 333.924,377.49 330.48,373.849C324.697,367.734 321.805,358.349 320.499,341.457L320.197,337.561L334.548,337.561L334.904,343.069C335.583,353.609 338.352,362.582 341.649,364.93C342.664,365.652 346.111,366.797 350.181,367.762C353.936,368.653 359.876,370.069 363.379,370.908C374.919,373.672 382.902,378.551 389.619,386.947C396.354,395.365 399.41,403.766 399.406,413.857C399.403,422.764 397.432,429.452 392.648,436.779C387.212,445.106 379.689,451.414 371.414,454.584C367.31,456.155 363.824,457.06 351.431,459.773C344.122,461.373 341.314,462.646 339.642,465.117C337.376,468.467 335.378,476.761 334.873,484.914L334.549,490.153L320.306,490.153L320.563,485.72ZM565.807,490.153L565.807,337.024L579.777,337.024L579.777,490.153L565.807,490.153ZM586.761,490.153L586.761,337.518L591.112,337.674L595.463,337.83L626.842,395.857L658.221,453.884L658.221,490.153L586.761,490.153ZM665.743,490.153L665.743,453.617L679.176,453.617L679.176,490.153L665.743,490.153ZM686.698,490.153L686.698,454.01L718.199,395.786L749.701,337.561L758.158,337.561L758.158,490.153L686.698,490.153ZM765.142,490.153L765.142,337.024L779.112,337.024L779.112,490.153L765.142,490.153Z" style="fill:rgb(210,35,42);fill-rule:nonzero;"/>
                        <g transform="matrix(1,0,0,1,299.292,598.18)">
                            <g id="text1649">
                                <text x="0px" y="0px" style="font-family:'Akhand-Extrabold', 'Akhand';font-weight:800;font-size:104.706px;fill:rgb(43,80,163);">MICCAI</text>
                            </g>
                        </g>
                        <g transform="matrix(1,0,0,1,587.234,595.999)">
                            <g id="text11648">
                                <g transform="matrix(104.706,0,0,104.706,181.874,0)">
                                </g>
                                <text x="0px" y="0px" style="font-family:'Akhand-Bold', 'Akhand';font-weight:700;font-size:104.706px;">2025</text>
                            </g>
                        </g>
                    </g>
                </g>
            </g>
        </g>
    </g>
</svg>
