<?xml version="1.0" encoding="UTF-8" standalone="no"?>
<!-- Created with Inkscape (http://www.inkscape.org/) -->

<svg
   version="1.1"
   id="svg2"
   width="618.87396"
   height="512"
   viewBox="0 0 618.87396 511.99999"
   sodipodi:docname="dgm4miccai2022_logo.svg"
   inkscape:version="1.1.1 (3bf5ae0d25, 2021-09-20, custom)"
   inkscape:export-filename="/home/henry/synced/job/PhD/collab/dgm4miccai.github.io/images/dgm4miccai2022_logo.png"
   inkscape:export-xdpi="90"
   inkscape:export-ydpi="90"
   xmlns:inkscape="http://www.inkscape.org/namespaces/inkscape"
   xmlns:sodipodi="http://sodipodi.sourceforge.net/DTD/sodipodi-0.dtd"
   xmlns="http://www.w3.org/2000/svg"
   xmlns:svg="http://www.w3.org/2000/svg">
  <defs
     id="defs6" />
  <sodipodi:namedview
     id="namedview4"
     pagecolor="#ffffff"
     bordercolor="#666666"
     borderopacity="1.0"
     inkscape:pageshadow="2"
     inkscape:pageopacity="0.0"
     inkscape:pagecheckerboard="0"
     showgrid="false"
     inkscape:zoom="0.58249843"
     inkscape:cx="309.87208"
     inkscape:cy="323.60602"
     inkscape:window-width="1541"
     inkscape:window-height="873"
     inkscape:window-x="190"
     inkscape:window-y="114"
     inkscape:window-maximized="1"
     inkscape:current-layer="g8"
     inkscape:snap-global="false"
     fit-margin-top="0"
     fit-margin-left="0"
     fit-margin-right="0"
     fit-margin-bottom="0" />
  <g
     inkscape:groupmode="layer"
     inkscape:label="Image"
     id="g8"
     transform="translate(-220.17561,-214.37971)">
    <rect
       style="fill:#ffffff;stroke:#666666;stroke-width:0;stroke-linecap:round;stroke-linejoin:round;stroke-miterlimit:4;stroke-dasharray:none;stroke-opacity:0"
       id="rect857"
       width="618.87396"
       height="512"
       x="220.17561"
       y="214.37971" />
    <path
       style="fill:#23408f;fill-opacity:1;stroke-width:0.537292"
       d="m 487.36226,490.06193 c -32.34996,-1.11433 -56.64059,-18.74939 -66.06504,-47.96337 -2.91549,-9.03751 -3.89846,-15.336 -4.18851,-26.83853 -0.30357,-12.03863 0.33181,-18.81027 2.61213,-27.83936 3.73913,-14.80528 9.73381,-25.59815 19.78142,-35.61464 13.84856,-13.80563 30.76259,-20.40113 52.28913,-20.38972 15.84223,0.008 31.34979,4.21155 41.87903,11.35086 1.68086,1.1397 3.18714,2.28417 3.34726,2.54327 0.20615,0.33355 -3.87362,10.41799 -4.74146,11.72 -0.0354,0.0532 -1.39104,-0.75976 -3.01237,-1.80664 -4.33877,-2.80152 -11.91761,-6.26855 -17.72342,-8.10776 -8.83437,-2.79863 -16.97864,-3.66883 -26.306,-2.81072 -25.61445,2.35648 -43.52846,18.36299 -50.28491,44.93049 -1.82814,7.18857 -2.46295,12.80723 -2.45619,21.73976 0.006,9.09569 0.64576,14.58947 2.55076,21.93475 4.67612,18.03009 16.43965,32.57335 31.71388,39.2079 7.46027,3.24046 13.0314,4.41314 22.48482,4.73284 12.35666,0.4179 21.17698,-1.25029 31.03384,-5.86946 l 4.70652,-2.20557 -0.13953,-25.29551 -0.13953,-25.29552 -20.55143,-0.1407 -20.55144,-0.14071 v -6.17248 -6.17248 h 25.54808 c 27.71288,0 27.81631,0.0108 29.15116,2.9401 0.79843,1.75238 0.92803,64.47351 0.13751,66.55273 -0.74047,1.9476 -2.54143,3.45016 -6.60347,5.50937 -13.13799,6.66016 -28.94001,10.03612 -44.47224,9.5011 z m -195.5745,-80.20496 v -76.83284 h 7.25345 7.25345 v 76.83284 76.83286 h -7.25345 -7.25345 z m 20.77557,71.8629 c 0.64164,-11.0735 3.27588,-21.90475 6.72275,-27.6421 4.40684,-7.33524 9.39939,-9.85254 26.45494,-13.33886 11.69362,-2.39029 17.22374,-4.83235 22.19055,-9.79915 3.27594,-3.27593 5.79724,-7.03406 7.65591,-11.41152 1.86432,-4.39079 2.15376,-12.061 0.64162,-17.00362 -1.58618,-5.18462 -4.60205,-9.96515 -8.76383,-13.89178 -5.75882,-5.43341 -8.44608,-6.45997 -29.40406,-11.2329 -7.67723,-1.74839 -12.13756,-3.90997 -15.58106,-7.55096 -5.78363,-6.11536 -8.67539,-15.49965 -9.98158,-32.39218 l -0.30119,-3.89538 h 7.17555 7.17555 l 0.35513,5.50725 c 0.67967,10.53988 3.44858,19.51326 6.74561,21.86095 1.01453,0.72241 4.46173,1.86689 8.53131,2.8324 3.75588,0.8911 9.69515,2.30675 13.19837,3.14589 11.54057,2.76439 19.52277,7.64342 26.24002,16.03897 6.73532,8.4181 9.79088,16.8192 9.78745,26.91009 -0.003,8.90711 -1.97471,15.59475 -6.75795,22.92195 -5.43613,8.32732 -12.95959,14.63552 -21.23483,17.80479 -4.10339,1.57152 -7.58914,2.47678 -19.98286,5.18962 -7.30879,1.5998 -10.11644,2.8725 -11.78852,5.34373 -2.26671,3.35006 -4.26466,11.64417 -4.76881,19.79687 l -0.32395,5.2386 h -7.12148 -7.12149 z m 253.24365,-72.13154 v -76.5642 h 6.9848 6.98482 v 76.5642 76.5642 h -6.98482 -6.9848 z m 20.95442,0.24691 v -76.31727 l 4.35069,0.15605 4.35071,0.15605 31.37926,58.02688 31.37925,58.02687 v 18.13437 18.13434 H 622.49135 586.7614 Z m 78.98201,58.04934 v -18.26794 h 6.71615 6.71615 v 18.26794 18.26795 h -6.71615 -6.71615 z m 20.9544,0.19687 v -18.07108 l 31.50136,-58.22448 31.50134,-58.22447 h 4.2286 4.22861 v 76.29555 76.29556 h -35.72995 -35.72996 z m 78.44467,-58.49312 v -76.5642 h 6.9848 6.98481 v 76.5642 76.5642 h -6.98481 -6.9848 z"
       id="path110"
       sodipodi:nodetypes="sssssssssssssssssscccccccssssscccccccccsssssssssscccssssscssssscccsccccccccccccccccccccccccccccccccccccccccccccccccc" />
    <text
       xml:space="preserve"
       style="font-size:96px;line-height:1.25;font-family:'Comic Sans MS';-inkscape-font-specification:'Comic Sans MS';letter-spacing:0px;word-spacing:0px"
       x="309.84039"
       y="605.97424"
       id="text1649"><tspan
         sodipodi:role="line"
         id="tspan1647"
         x="309.84039"
         y="605.97424"
         style="font-style:normal;font-variant:normal;font-weight:normal;font-stretch:normal;font-size:96px;font-family:Politica;-inkscape-font-specification:Politica">MICCAI</tspan></text>
    <text
       xml:space="preserve"
       style="font-size:96px;line-height:1.25;font-family:'Comic Sans MS';-inkscape-font-specification:'Comic Sans MS';letter-spacing:0px;word-spacing:0px;fill:#23408f;fill-opacity:1"
       x="591.84039"
       y="605.97424"
       id="text11648"><tspan
         sodipodi:role="line"
         id="tspan11646"
         x="591.84039"
         y="605.97424"
         style="font-style:normal;font-variant:normal;font-weight:normal;font-stretch:normal;font-size:96px;font-family:Politica;-inkscape-font-specification:Politica;fill:#23408f;fill-opacity:1">2022</tspan></text>
  </g>
</svg>
